<?xml version="1.0" encoding="UTF-8" standalone="no"?>
<svg
   width="100"
   height="100"
   viewBox="0 0 100 100"
   version="1.1"
   id="svg12488"
   sodipodi:docname="hey-ttyx.svg"
   inkscape:version="1.2.2 (b0a8486541, 2022-12-01)"
   xmlns:inkscape="http://www.inkscape.org/namespaces/inkscape"
   xmlns:sodipodi="http://sodipodi.sourceforge.net/DTD/sodipodi-0.dtd"
   xmlns="http://www.w3.org/2000/svg"
   xmlns:svg="http://www.w3.org/2000/svg"
   xmlns:rdf="http://www.w3.org/1999/02/22-rdf-syntax-ns#"
   xmlns:cc="http://creativecommons.org/ns#"
   xmlns:dc="http://purl.org/dc/elements/1.1/">
  <defs
     id="defs12492" />
  <sodipodi:namedview
     id="namedview12490"
     pagecolor="#ffffff"
     bordercolor="#000000"
     borderopacity="0.25"
     inkscape:showpageshadow="2"
     inkscape:pageopacity="0.0"
     inkscape:pagecheckerboard="0"
     inkscape:deskcolor="#d1d1d1"
     showgrid="false"
     inkscape:zoom="3.1996582"
     inkscape:cx="64.69441"
     inkscape:cy="41.09814"
     inkscape:window-width="1904"
     inkscape:window-height="1027"
     inkscape:window-x="26"
     inkscape:window-y="23"
     inkscape:window-maximized="0"
     inkscape:current-layer="g10308">
    <inkscape:grid
       type="xygrid"
       id="grid1939" />
  </sodipodi:namedview>
  <title
     id="title12480">HeyNestor Logo</title>
  <!-- Background: rounded square -->
  <!-- N lettermark -->
  <!-- Chat dot accent -->
  <metadata
     id="metadata306">
    <rdf:RDF>
      <cc:Work
         rdf:about="">
        <dc:title>HeyNestor Logo</dc:title>
      </cc:Work>
    </rdf:RDF>
  </metadata>
  <g
     id="g10308"
     transform="matrix(1.0195333,0,0,1.0195333,99.894734,49.9376)"
     style="stroke-width:0.980841">
    <path
       d="m -72.505445,23 c 0.01156,-15.454289 -0.02311,-30.909681 0.01733,-46.363281 0.120403,-2.152458 2.516037,-2.84397 4.32378,-2.636719 2.353186,0.07698 4.735985,-0.178362 7.065136,0.179688 2.817003,0.747392 3.807447,3.728738 5.359128,5.863596 5.744878,8.985572 11.489752,17.971144 17.234626,26.956716 0.01156,-10.120956 -0.02312,-20.243014 0.01733,-30.363281 0.120403,-2.152458 2.516037,-2.84397 4.32378,-2.636719 2.321119,0.08444 4.679849,-0.19225 6.971386,0.1875 2.212847,0.783458 1.595991,3.370779 1.6875,5.195655 -0.01156,14.659904 0.02311,29.320911 -0.01733,43.980126 -0.120403,2.152458 -2.516037,2.84397 -4.32378,2.636719 -2.353186,-0.07698 -4.735985,0.178362 -7.065136,-0.179688 -2.817003,-0.747392 -3.807447,-3.728738 -5.359128,-5.863596 C -48.015697,10.971144 -53.760571,1.985572 -59.505445,-7 c -0.01156,10.120956 0.02312,20.243014 -0.01733,30.363281 -0.120403,2.152458 -2.516037,2.84397 -4.32378,2.636719 -2.321119,-0.08444 -4.679849,0.19225 -6.971386,-0.1875 -1.224784,-0.344512 -1.734251,-1.64701 -1.6875,-2.8125 z"
       fill="#ffffff"
       id="path12484"
       style="stroke-width:0.962049" />
    <circle
       cx="-19"
       cy="-34"
       r="8"
       fill="#ffffff"
       opacity="0.9"
       id="circle12486"
       style="stroke-width:0.962049" />
    <rect
       style="fill:#5e5c64;fill-opacity:1;stroke:#241f31;stroke-width:0.980841;stroke-dasharray:none;stroke-opacity:1"
       id="rect4380"
       width="90.633461"
       height="88.797318"
       x="-94.701447"
       y="-44.3158"
       rx="7.2377672"
       ry="8.2843323" />
    <path
       style="fill:none;stroke:#000000;stroke-width:1.96168;stroke-dasharray:none;stroke-opacity:1"
       d="m -48.73347,-43.444946 c -0.188622,87.05348 -0.188622,87.05348 -0.188622,87.05348"
       id="path1943" />
    <text
       xml:space="preserve"
       style="font-style:normal;font-variant:normal;font-weight:normal;font-stretch:normal;font-size:33.4265px;font-family:'Aller Light';-inkscape-font-specification:'Aller Light, Normal';font-variant-ligatures:normal;font-variant-caps:normal;font-variant-numeric:normal;font-variant-east-asian:normal;fill:#f6f5f4;fill-opacity:1;stroke:#f6f5f4;stroke-width:1.96168;stroke-dasharray:none;stroke-opacity:1"
       x="-70.831314"
       y="-11.264954"
       id="text2001"
       transform="scale(1.1168773,0.89535349)"><tspan
         sodipodi:role="line"
         id="tspan1999"
         x="-70.831314"
         y="-11.264954"
         style="fill:#f6f5f4;fill-opacity:1;stroke:#f6f5f4;stroke-width:1.96168;stroke-opacity:1">T</tspan></text>
    <text
       xml:space="preserve"
       style="font-weight:bold;font-size:38.7221px;font-family:Georgia;-inkscape-font-specification:'Georgia, Bold';fill:#f6f5f4;fill-opacity:1;stroke:#f6f5f4;stroke-width:0.980841;stroke-dasharray:none;stroke-opacity:1"
       x="-42.364964"
       y="31.459837"
       id="text2067"
       transform="scale(0.99368345,1.0063567)"><tspan
         sodipodi:role="line"
         id="tspan2065"
         x="-42.364964"
         y="31.459837"
         style="fill:#f6f5f4;fill-opacity:1;stroke:#f6f5f4;stroke-width:0.980841;stroke-dasharray:none;stroke-opacity:1">X</tspan></text>
    <text
       xml:space="preserve"
       style="font-style:normal;font-variant:normal;font-weight:normal;font-stretch:normal;font-size:31.8709px;font-family:'Aller Light';-inkscape-font-specification:'Aller Light, Normal';font-variant-ligatures:normal;font-variant-caps:normal;font-variant-numeric:normal;font-variant-east-asian:normal;fill:#f6f5f4;fill-opacity:1;stroke:#f6f5f4;stroke-width:1.96168;stroke-dasharray:none;stroke-opacity:1"
       x="-31.800793"
       y="-19.251936"
       id="text2071"
       transform="scale(1.17139,0.85368668)"><tspan
         sodipodi:role="line"
         id="tspan2069"
         x="-31.800793"
         y="-19.251936"
         style="fill:#f6f5f4;fill-opacity:1;stroke:#f6f5f4;stroke-width:1.96168;stroke-opacity:1">T</tspan></text>
    <path
       id="path2109"
       style="fill:none;stroke:#f6f5f4;stroke-width:3.43294;stroke-dasharray:none;stroke-opacity:1"
       d="m -48.733482,-43.418102 -0.188622,32.437275 m 0.554995,2.0872551 42.9758193,0.188622"
       sodipodi:nodetypes="cccc" />
    <path
       id="path2112"
       style="fill:none;stroke:#f6f5f4;stroke-width:3.43294;stroke-dasharray:none;stroke-opacity:1"
       d="m -48.733817,-43.088291 -0.187739,43.17564525 z m -43.268113,42.92135832 42.97501,0.18786871 z m 43.170412,0.003795 -0.172414,43.27242568 z" />
    <text
       xml:space="preserve"
       style="font-style:normal;font-variant:normal;font-weight:normal;font-stretch:normal;font-size:33.3803px;font-family:'Aller Light';-inkscape-font-specification:'Aller Light, Normal';font-variant-ligatures:normal;font-variant-caps:normal;font-variant-numeric:normal;font-variant-east-asian:normal;fill:#f6f5f4;fill-opacity:1;stroke:#f6f5f4;stroke-width:1.96168;stroke-dasharray:none;stroke-opacity:1"
       x="-72.051811"
       y="36.563274"
       id="text2071-9"
       transform="scale(1.1184251,0.89411442)"><tspan
         sodipodi:role="line"
         id="tspan2069-3"
         x="-72.051811"
         y="36.563274"
         style="fill:#f6f5f4;fill-opacity:1;stroke:#f6f5f4;stroke-width:1.96168;stroke-opacity:1">Y</tspan></text>
    <path
       id="rect974"
       style="fill:#241f31;fill-opacity:1;stroke:#241f31;stroke-width:1.96168;stroke-dasharray:none;stroke-opacity:1"
       d="m -15.771484,-43.990234 c -23.270521,-0.01633 -46.542251,-0.02457 -69.812732,0.0115 -3.902606,0.194511 -7.339455,3.661454 -7.388847,7.592542 -0.07881,2.489012 0.01426,4.981404 -0.02708,7.472133 0.01071,21.8735704 -0.03029,43.748175 0.02944,65.621094 0.258514,3.853687 3.696091,7.216557 7.584508,7.266032 2.489011,0.07881 4.981404,-0.01426 7.472132,0.02708 21.87357,-0.01071 43.748176,0.03029 65.621094,-0.02944 3.853687,-0.258513 7.216557,-3.696091 7.266032,-7.584507 0.07881,-2.489012 -0.01426,-4.981404 0.02708,-7.472133 -0.01071,-21.8735696 0.03029,-43.748175 -0.02944,-65.621094 -0.258513,-3.853686 -3.696091,-7.216557 -7.584507,-7.266031 -1.051426,-0.07473 -2.10505,-0.03068 -3.15768,-0.01717 z M -85,-48 h 72 c 6.648,0 12,5.352 12,12 v 72 c 0,6.648 -5.352,12 -12,12 h -72 c -6.648,0 -12,-5.352 -12,-12 v -72 c 0,-6.648 5.352,-12 12,-12 z" />
  </g>
</svg>
